<mxfile host="app.diagrams.net" modified="2022-01-17T13:55:47.304Z" agent="5.0 (Windows)" etag="gKP7MTYvb7qIwf2fh23g" compressed="false" version="16.2.7" type="github">
  <diagram id="C5RBs43oDa-KdzZeNtuy" name="Page-1">
    <mxGraphModel dx="1346" dy="806" grid="1" gridSize="10" guides="1" tooltips="1" connect="1" arrows="1" fold="1" page="1" pageScale="1" pageWidth="1169" pageHeight="827" math="0" shadow="0">
      <root>
        <mxCell id="WIyWlLk6GJQsqaUBKTNV-0" />
        <mxCell id="WIyWlLk6GJQsqaUBKTNV-1" parent="WIyWlLk6GJQsqaUBKTNV-0" />
        <mxCell id="JNPwkmlDs6uKcqjjOvbe-81" value="" style="group;fontFamily=微軟正黑體;fontSize=20;" parent="WIyWlLk6GJQsqaUBKTNV-1" vertex="1" connectable="0">
          <mxGeometry x="60" y="50" width="1050" height="750" as="geometry" />
        </mxCell>
        <mxCell id="mLTppHVD_9ZPHQQd_vt6-0" value="" style="swimlane;startSize=0;fontFamily=微軟正黑體;fontSize=20;" parent="JNPwkmlDs6uKcqjjOvbe-81" vertex="1">
          <mxGeometry x="32.56" y="173.27" width="271.32" height="576.73" as="geometry" />
        </mxCell>
        <mxCell id="WIyWlLk6GJQsqaUBKTNV-3" value="&lt;div style=&quot;font-size: 20px;&quot;&gt;Login page&lt;br style=&quot;font-size: 20px;&quot;&gt;&lt;/div&gt;&lt;div style=&quot;font-size: 20px;&quot;&gt;POST /login&lt;/div&gt;" style="rounded=1;html=1;fontSize=20;glass=0;strokeWidth=1;shadow=0;fontFamily=微軟正黑體;spacing=4;" parent="mLTppHVD_9ZPHQQd_vt6-0" vertex="1">
          <mxGeometry x="47.44356589147287" y="255.34831683168318" width="180" height="60" as="geometry" />
        </mxCell>
        <mxCell id="JNPwkmlDs6uKcqjjOvbe-14" value="Home page" style="rounded=1;html=1;fontSize=20;glass=0;strokeWidth=1;shadow=0;fontFamily=微軟正黑體;spacing=4;" parent="mLTppHVD_9ZPHQQd_vt6-0" vertex="1">
          <mxGeometry x="47.44356589147287" y="365.5921782178218" width="180" height="60" as="geometry" />
        </mxCell>
        <mxCell id="JNPwkmlDs6uKcqjjOvbe-21" value="Login page" style="rounded=1;html=1;fontSize=20;glass=0;strokeWidth=1;shadow=0;fontFamily=微軟正黑體;spacing=4;" parent="mLTppHVD_9ZPHQQd_vt6-0" vertex="1">
          <mxGeometry x="47.44356589147287" y="491.2360396039604" width="180" height="60" as="geometry" />
        </mxCell>
        <mxCell id="rLleTe8lX56IgaHrnfPI-0" value="&lt;div style=&quot;font-size: 20px&quot;&gt;Render&lt;br&gt;&lt;/div&gt;&lt;div style=&quot;font-size: 20px&quot;&gt;any page&lt;br style=&quot;font-size: 20px&quot;&gt;&lt;/div&gt;" style="rounded=1;html=1;fontSize=20;glass=0;strokeWidth=1;shadow=0;fontFamily=微軟正黑體;spacing=4;" vertex="1" parent="mLTppHVD_9ZPHQQd_vt6-0">
          <mxGeometry x="45.66356589147287" y="124.00831683168315" width="180" height="60" as="geometry" />
        </mxCell>
        <mxCell id="rLleTe8lX56IgaHrnfPI-40" value="&lt;div style=&quot;font-size: 20px&quot;&gt;Any page&lt;br style=&quot;font-size: 20px&quot;&gt;&lt;/div&gt;&lt;div style=&quot;font-size: 20px&quot;&gt;GET /*&lt;/div&gt;" style="rounded=1;html=1;fontSize=20;glass=0;strokeWidth=1;shadow=0;fontFamily=微軟正黑體;spacing=4;" vertex="1" parent="mLTppHVD_9ZPHQQd_vt6-0">
          <mxGeometry x="45.66356589147287" y="36.72831683168312" width="180" height="60" as="geometry" />
        </mxCell>
        <mxCell id="mLTppHVD_9ZPHQQd_vt6-1" value="" style="swimlane;startSize=0;fontFamily=微軟正黑體;fontSize=20;" parent="JNPwkmlDs6uKcqjjOvbe-81" vertex="1">
          <mxGeometry x="412.4" y="173.27" width="271.32" height="576.73" as="geometry" />
        </mxCell>
        <mxCell id="WIyWlLk6GJQsqaUBKTNV-11" value="&lt;div style=&quot;font-size: 20px;&quot;&gt;passport-strategy&lt;/div&gt;&lt;div style=&quot;font-size: 20px;&quot;&gt;處理&lt;/div&gt;" style="rounded=1;html=1;fontSize=20;glass=0;strokeWidth=1;shadow=0;fontFamily=微軟正黑體;spacing=4;" parent="mLTppHVD_9ZPHQQd_vt6-1" vertex="1">
          <mxGeometry x="47.44356589147287" y="255.34831683168318" width="180" height="60" as="geometry" />
        </mxCell>
        <mxCell id="JNPwkmlDs6uKcqjjOvbe-9" value="&lt;div style=&quot;font-size: 20px;&quot;&gt;passport-strategy&lt;/div&gt;&lt;div style=&quot;font-size: 20px;&quot;&gt;序列至session&lt;br style=&quot;font-size: 20px;&quot;&gt;&lt;/div&gt;" style="rounded=1;html=1;fontSize=20;glass=0;strokeWidth=1;shadow=0;fontFamily=微軟正黑體;spacing=4;" parent="mLTppHVD_9ZPHQQd_vt6-1" vertex="1">
          <mxGeometry x="47.44356589147287" y="365.5921782178218" width="180" height="60" as="geometry" />
        </mxCell>
        <mxCell id="JNPwkmlDs6uKcqjjOvbe-19" value="&lt;div style=&quot;font-size: 20px;&quot;&gt;passport-strategy&lt;/div&gt;&lt;div style=&quot;font-size: 20px;&quot;&gt;序列失敗&lt;br style=&quot;font-size: 20px;&quot;&gt;&lt;/div&gt;" style="rounded=1;html=1;fontSize=20;glass=0;strokeWidth=1;shadow=0;fontFamily=微軟正黑體;spacing=4;" parent="mLTppHVD_9ZPHQQd_vt6-1" vertex="1">
          <mxGeometry x="47.44356589147287" y="491.2360396039604" width="180" height="60" as="geometry" />
        </mxCell>
        <mxCell id="rLleTe8lX56IgaHrnfPI-3" value="是否已驗證" style="rhombus;whiteSpace=wrap;shadow=0;fontFamily=微軟正黑體;fontSize=20;align=center;strokeWidth=1;spacing=6;spacingTop=-4;html=1;" vertex="1" parent="mLTppHVD_9ZPHQQd_vt6-1">
          <mxGeometry x="47.43999999999994" y="86.73000000000002" width="164.61" height="134.55" as="geometry" />
        </mxCell>
        <mxCell id="mLTppHVD_9ZPHQQd_vt6-2" value="" style="swimlane;startSize=0;fontFamily=微軟正黑體;fontSize=20;" parent="JNPwkmlDs6uKcqjjOvbe-81" vertex="1">
          <mxGeometry x="778.68" y="173.27" width="271.32" height="576.73" as="geometry" />
        </mxCell>
        <mxCell id="WIyWlLk6GJQsqaUBKTNV-6" value="使用者&lt;br style=&quot;font-size: 20px;&quot;&gt;是否存在" style="rhombus;whiteSpace=wrap;shadow=0;fontFamily=微軟正黑體;fontSize=20;align=center;strokeWidth=1;spacing=6;spacingTop=-4;html=1;" parent="mLTppHVD_9ZPHQQd_vt6-2" vertex="1">
          <mxGeometry x="53.35000000000001" y="218.07000000000002" width="164.61" height="134.55" as="geometry" />
        </mxCell>
        <mxCell id="mLTppHVD_9ZPHQQd_vt6-4" style="edgeStyle=orthogonalEdgeStyle;rounded=0;orthogonalLoop=1;jettySize=auto;html=1;entryX=0;entryY=0.5;entryDx=0;entryDy=0;fontSize=20;fontFamily=微軟正黑體;" parent="JNPwkmlDs6uKcqjjOvbe-81" source="WIyWlLk6GJQsqaUBKTNV-3" target="WIyWlLk6GJQsqaUBKTNV-11" edge="1">
          <mxGeometry relative="1" as="geometry" />
        </mxCell>
        <mxCell id="JNPwkmlDs6uKcqjjOvbe-2" value="送出帳號密碼" style="text;html=1;align=center;verticalAlign=middle;resizable=0;points=[];autosize=1;strokeColor=#d6b656;fillColor=#fff2cc;fontSize=20;fontFamily=微軟正黑體;" parent="JNPwkmlDs6uKcqjjOvbe-81" vertex="1">
          <mxGeometry x="290.00007751937983" y="421.3442574257425" width="140" height="30" as="geometry" />
        </mxCell>
        <mxCell id="JNPwkmlDs6uKcqjjOvbe-3" value="查詢使用者資料" style="text;html=1;align=center;verticalAlign=middle;resizable=0;points=[];autosize=1;strokeColor=#d6b656;fillColor=#fff2cc;fontSize=20;fontFamily=微軟正黑體;" parent="JNPwkmlDs6uKcqjjOvbe-81" vertex="1">
          <mxGeometry x="650.8550387596899" y="421.3442574257425" width="160" height="30" as="geometry" />
        </mxCell>
        <mxCell id="JNPwkmlDs6uKcqjjOvbe-6" style="edgeStyle=orthogonalEdgeStyle;rounded=0;orthogonalLoop=1;jettySize=auto;html=1;entryX=0;entryY=0.5;entryDx=0;entryDy=0;fontSize=20;fontFamily=微軟正黑體;" parent="JNPwkmlDs6uKcqjjOvbe-81" source="WIyWlLk6GJQsqaUBKTNV-11" target="WIyWlLk6GJQsqaUBKTNV-6" edge="1">
          <mxGeometry relative="1" as="geometry">
            <mxPoint x="846.5116279069767" y="456.33841584158415" as="targetPoint" />
          </mxGeometry>
        </mxCell>
        <mxCell id="JNPwkmlDs6uKcqjjOvbe-8" style="edgeStyle=orthogonalEdgeStyle;rounded=0;orthogonalLoop=1;jettySize=auto;html=1;fontSize=20;fontFamily=微軟正黑體;exitX=0.5;exitY=1;exitDx=0;exitDy=0;entryX=1;entryY=0.5;entryDx=0;entryDy=0;" parent="JNPwkmlDs6uKcqjjOvbe-81" source="WIyWlLk6GJQsqaUBKTNV-6" target="JNPwkmlDs6uKcqjjOvbe-9" edge="1">
          <mxGeometry relative="1" as="geometry">
            <mxPoint x="914.3349999999996" y="538.8600000000004" as="sourcePoint" />
            <mxPoint x="670" y="497.81000000000006" as="targetPoint" />
            <Array as="points">
              <mxPoint x="914" y="569" />
            </Array>
          </mxGeometry>
        </mxCell>
        <mxCell id="JNPwkmlDs6uKcqjjOvbe-10" value="存在" style="text;html=1;align=center;verticalAlign=middle;resizable=0;points=[];autosize=1;strokeColor=#d6b656;fillColor=#fff2cc;fontSize=20;fontFamily=微軟正黑體;" parent="JNPwkmlDs6uKcqjjOvbe-81" vertex="1">
          <mxGeometry x="700.8527131782946" y="519.9981188118812" width="60" height="30" as="geometry" />
        </mxCell>
        <mxCell id="JNPwkmlDs6uKcqjjOvbe-11" value="&lt;font style=&quot;font-size: 26px;&quot;&gt;Web browser&lt;/font&gt;" style="text;html=1;align=center;verticalAlign=middle;resizable=0;points=[];autosize=1;fontSize=26;fontFamily=微軟正黑體;" parent="JNPwkmlDs6uKcqjjOvbe-81" vertex="1">
          <mxGeometry x="78.21875968992248" y="107.82178217821783" width="180" height="40" as="geometry" />
        </mxCell>
        <mxCell id="JNPwkmlDs6uKcqjjOvbe-12" value="&lt;font style=&quot;font-size: 26px;&quot;&gt;Server&lt;/font&gt;" style="text;html=1;align=center;verticalAlign=middle;resizable=0;points=[];autosize=1;fontSize=26;fontFamily=微軟正黑體;" parent="JNPwkmlDs6uKcqjjOvbe-81" vertex="1">
          <mxGeometry x="503.0613953488372" y="107.82178217821783" width="90" height="40" as="geometry" />
        </mxCell>
        <mxCell id="JNPwkmlDs6uKcqjjOvbe-13" value="&lt;font style=&quot;font-size: 26px;&quot;&gt;Database&lt;/font&gt;" style="text;html=1;align=center;verticalAlign=middle;resizable=0;points=[];autosize=1;fontSize=26;fontFamily=微軟正黑體;" parent="JNPwkmlDs6uKcqjjOvbe-81" vertex="1">
          <mxGeometry x="849.3416279069768" y="107.82178217821783" width="130" height="40" as="geometry" />
        </mxCell>
        <mxCell id="JNPwkmlDs6uKcqjjOvbe-16" style="edgeStyle=orthogonalEdgeStyle;rounded=0;orthogonalLoop=1;jettySize=auto;html=1;entryX=1;entryY=0.5;entryDx=0;entryDy=0;fontSize=20;fontFamily=微軟正黑體;" parent="JNPwkmlDs6uKcqjjOvbe-81" source="JNPwkmlDs6uKcqjjOvbe-9" target="JNPwkmlDs6uKcqjjOvbe-14" edge="1">
          <mxGeometry relative="1" as="geometry" />
        </mxCell>
        <mxCell id="JNPwkmlDs6uKcqjjOvbe-17" value="&lt;div&gt;Set cookie&lt;/div&gt;" style="text;html=1;align=center;verticalAlign=middle;resizable=0;points=[];autosize=1;strokeColor=#d6b656;fillColor=#fff2cc;fontSize=20;fontFamily=微軟正黑體;" parent="JNPwkmlDs6uKcqjjOvbe-81" vertex="1">
          <mxGeometry x="304.9989147286821" y="519.9981188118812" width="110" height="30" as="geometry" />
        </mxCell>
        <mxCell id="JNPwkmlDs6uKcqjjOvbe-18" style="edgeStyle=orthogonalEdgeStyle;rounded=0;orthogonalLoop=1;jettySize=auto;html=1;exitX=1;exitY=0.5;exitDx=0;exitDy=0;fontSize=20;entryX=1;entryY=0.5;entryDx=0;entryDy=0;fontFamily=微軟正黑體;" parent="JNPwkmlDs6uKcqjjOvbe-81" source="WIyWlLk6GJQsqaUBKTNV-6" target="JNPwkmlDs6uKcqjjOvbe-19" edge="1">
          <mxGeometry relative="1" as="geometry">
            <Array as="points">
              <mxPoint x="997" y="694.84" />
            </Array>
          </mxGeometry>
        </mxCell>
        <mxCell id="JNPwkmlDs6uKcqjjOvbe-20" value="不存在" style="text;html=1;align=center;verticalAlign=middle;resizable=0;points=[];autosize=1;strokeColor=#d6b656;fillColor=#fff2cc;fontSize=20;fontFamily=微軟正黑體;" parent="JNPwkmlDs6uKcqjjOvbe-81" vertex="1">
          <mxGeometry x="690.8597674418604" y="645.6419801980198" width="80" height="30" as="geometry" />
        </mxCell>
        <mxCell id="JNPwkmlDs6uKcqjjOvbe-24" style="edgeStyle=orthogonalEdgeStyle;rounded=0;orthogonalLoop=1;jettySize=auto;html=1;entryX=1;entryY=0.5;entryDx=0;entryDy=0;fontSize=20;exitX=0;exitY=0.5;exitDx=0;exitDy=0;fontFamily=微軟正黑體;" parent="JNPwkmlDs6uKcqjjOvbe-81" source="JNPwkmlDs6uKcqjjOvbe-19" target="JNPwkmlDs6uKcqjjOvbe-21" edge="1">
          <mxGeometry relative="1" as="geometry">
            <mxPoint x="459.8837209302326" y="636.780594059406" as="sourcePoint" />
            <mxPoint x="242.82945736434107" y="636.780594059406" as="targetPoint" />
            <Array as="points" />
          </mxGeometry>
        </mxCell>
        <mxCell id="JNPwkmlDs6uKcqjjOvbe-25" value="返回錯誤訊息" style="text;html=1;align=center;verticalAlign=middle;resizable=0;points=[];autosize=1;strokeColor=#d6b656;fillColor=#fff2cc;fontSize=20;fontFamily=微軟正黑體;" parent="JNPwkmlDs6uKcqjjOvbe-81" vertex="1">
          <mxGeometry x="290.00007751937983" y="645.6419801980198" width="140" height="30" as="geometry" />
        </mxCell>
        <mxCell id="JNPwkmlDs6uKcqjjOvbe-26" value="&lt;div style=&quot;font-size: 30px;&quot;&gt;&lt;font style=&quot;font-size: 30px;&quot;&gt;登入&lt;/font&gt;&lt;/div&gt;" style="text;html=1;align=center;verticalAlign=middle;resizable=0;points=[];autosize=1;fillColor=#647687;strokeColor=#314354;spacing=8;spacingBottom=2;spacingTop=2;fontColor=#ffffff;spacingLeft=4;spacingRight=4;fontFamily=微軟正黑體;fontSize=30;" parent="JNPwkmlDs6uKcqjjOvbe-81" vertex="1">
          <mxGeometry x="10" y="-5" width="100" height="60" as="geometry" />
        </mxCell>
        <mxCell id="rLleTe8lX56IgaHrnfPI-35" value="已驗證" style="text;html=1;align=center;verticalAlign=middle;resizable=0;points=[];autosize=1;strokeColor=#d6b656;fillColor=#fff2cc;fontSize=20;fontFamily=微軟正黑體;" vertex="1" parent="JNPwkmlDs6uKcqjjOvbe-81">
          <mxGeometry x="320.00007751937983" y="290.00425742574265" width="80" height="30" as="geometry" />
        </mxCell>
        <mxCell id="rLleTe8lX56IgaHrnfPI-37" style="edgeStyle=orthogonalEdgeStyle;rounded=0;orthogonalLoop=1;jettySize=auto;html=1;entryX=0.5;entryY=0;entryDx=0;entryDy=0;" edge="1" parent="JNPwkmlDs6uKcqjjOvbe-81" source="rLleTe8lX56IgaHrnfPI-3" target="WIyWlLk6GJQsqaUBKTNV-3">
          <mxGeometry relative="1" as="geometry">
            <Array as="points">
              <mxPoint x="542" y="400" />
              <mxPoint x="170" y="400" />
            </Array>
          </mxGeometry>
        </mxCell>
        <mxCell id="rLleTe8lX56IgaHrnfPI-38" value="未驗證" style="text;html=1;align=center;verticalAlign=middle;resizable=0;points=[];autosize=1;strokeColor=#d6b656;fillColor=#fff2cc;fontSize=20;fontFamily=微軟正黑體;" vertex="1" parent="JNPwkmlDs6uKcqjjOvbe-81">
          <mxGeometry x="320.00007751937983" y="363.00425742574254" width="80" height="30" as="geometry" />
        </mxCell>
        <mxCell id="rLleTe8lX56IgaHrnfPI-77" value="出示 cookie" style="text;html=1;align=center;verticalAlign=middle;resizable=0;points=[];autosize=1;strokeColor=#d6b656;fillColor=#fff2cc;fontSize=20;fontFamily=微軟正黑體;" vertex="1" parent="JNPwkmlDs6uKcqjjOvbe-81">
          <mxGeometry x="300.00007751937983" y="200.0042574257426" width="120" height="30" as="geometry" />
        </mxCell>
        <mxCell id="rLleTe8lX56IgaHrnfPI-78" style="edgeStyle=orthogonalEdgeStyle;rounded=0;orthogonalLoop=1;jettySize=auto;html=1;entryX=0.5;entryY=0;entryDx=0;entryDy=0;exitX=1;exitY=0.5;exitDx=0;exitDy=0;" edge="1" parent="JNPwkmlDs6uKcqjjOvbe-81" source="rLleTe8lX56IgaHrnfPI-40" target="rLleTe8lX56IgaHrnfPI-3">
          <mxGeometry relative="1" as="geometry">
            <mxPoint x="360" y="240" as="sourcePoint" />
            <Array as="points">
              <mxPoint x="542" y="240" />
            </Array>
          </mxGeometry>
        </mxCell>
        <mxCell id="rLleTe8lX56IgaHrnfPI-80" value="" style="edgeStyle=orthogonalEdgeStyle;rounded=0;orthogonalLoop=1;jettySize=auto;html=1;entryX=1;entryY=0.5;entryDx=0;entryDy=0;" edge="1" parent="JNPwkmlDs6uKcqjjOvbe-81" source="rLleTe8lX56IgaHrnfPI-3" target="rLleTe8lX56IgaHrnfPI-0">
          <mxGeometry relative="1" as="geometry" />
        </mxCell>
      </root>
    </mxGraphModel>
  </diagram>
</mxfile>
